<svg xmlns="http://www.w3.org/2000/svg" width="255.56" height="43.84" viewBox="0 0 255.56 43.84">
  <g id="botão" transform="translate(-172 -1626.81)">
    <rect id="Retângulo_10_copy_7" data-name="Retângulo 10 copy 7" width="255.56" height="43.84" rx="21" transform="translate(172 1626.81)" fill="#009fb5"/>
    <path id="Caminho_31" data-name="Caminho 31" d="M-39.994.233a6.578,6.578,0,0,1-4.764-1.6,5.971,5.971,0,0,1-1.651-4.5,10.424,10.424,0,0,1,.582-3.451,10.213,10.213,0,0,1,1.673-3.038,7.913,7.913,0,0,1,2.858-2.2,9.069,9.069,0,0,1,3.927-.836,5.946,5.946,0,0,1,3.6,1.08,5.019,5.019,0,0,1,1.948,2.922L-35-10.1a2.754,2.754,0,0,0-2.71-1.927,4.216,4.216,0,0,0-2.181.561,4.237,4.237,0,0,0-1.493,1.44A7.334,7.334,0,0,0-42.2-8.172a7.06,7.06,0,0,0-.275,1.927,3.165,3.165,0,0,0,.741,2.212,2.8,2.8,0,0,0,2.181.815,5.827,5.827,0,0,0,4-1.884L-33.3-2.816a9.383,9.383,0,0,1-2.954,2.2A8.454,8.454,0,0,1-39.994.233Zm14.651,0a6.713,6.713,0,0,1-4.88-1.715,6,6,0,0,1-1.768-4.51,11.264,11.264,0,0,1,.339-2.763,9.283,9.283,0,0,1,1.069-2.551,8.99,8.99,0,0,1,1.768-2.117,7.657,7.657,0,0,1,2.541-1.44,9.818,9.818,0,0,1,3.282-.529A6.828,6.828,0,0,1-18.1-13.709a6.064,6.064,0,0,1,1.778,4.626,10.675,10.675,0,0,1-.54,3.4,9.73,9.73,0,0,1-1.6,2.964A7.421,7.421,0,0,1-21.3-.572,9.711,9.711,0,0,1-25.343.233Zm.3-3.388a4.315,4.315,0,0,0,2.212-.561,4.064,4.064,0,0,0,1.493-1.461,7.828,7.828,0,0,0,.794-1.831,6.717,6.717,0,0,0,.265-1.842q0-3.155-2.985-3.155a4.324,4.324,0,0,0-1.81.371,4.1,4.1,0,0,0-1.355.963,5.951,5.951,0,0,0-.921,1.355,6.233,6.233,0,0,0-.54,1.535,7.61,7.61,0,0,0-.159,1.535A3.15,3.15,0,0,0-27.27-3.97,2.939,2.939,0,0,0-25.047-3.155ZM-3.324-15.117H.339L-2.2-1a1.172,1.172,0,0,1-.7.847A3.142,3.142,0,0,1-4.361.169,3.149,3.149,0,0,1-5.769-.064a1.823,1.823,0,0,1-.73-.8l-4.044-7.707L-12.068,0H-15.71L-13.3-13.677q.275-1.5,2.308-1.5a2.556,2.556,0,0,1,1.493.318,4.226,4.226,0,0,1,.942,1.313l3.726,6.966Zm15.985,3.239H6.479L6.013-9.252h5.42l-.572,3.26H5.441L4.383,0H.487L2.9-13.614a1.736,1.736,0,0,1,.6-1.08,1.727,1.727,0,0,1,1.154-.423h8.575ZM12.555,0l2.668-15.117h3.9L16.451,0ZM32.986-10.925a6.4,6.4,0,0,1-.169,1.45,6.7,6.7,0,0,1-.582,1.535,4.362,4.362,0,0,1-1.249,1.45,5.665,5.665,0,0,1-2.022.963L31.208,0H27.079L25.174-5.272H23.967L23.035,0H19.309l2.414-13.7a1.7,1.7,0,0,1,.614-1.027,1.769,1.769,0,0,1,1.143-.392h5a4.652,4.652,0,0,1,3.313,1.122A4.005,4.005,0,0,1,32.986-10.925ZM26.931-8.363a1.979,1.979,0,0,0,1.588-.667,2.263,2.263,0,0,0,.572-1.514,1.331,1.331,0,0,0-.349-.984,1.331,1.331,0,0,0-.985-.349H25.131l-.614,3.515ZM42.365,0l-.36-2.837H37.411L36.056,0h-3.98l7.071-13.677a2.789,2.789,0,0,1,2.731-1.44q1.99,0,2.265,1.567L46.346,0ZM38.978-6.1H41.6l-.55-4.319Z" transform="translate(300.163 1656.303)" fill="#fff"/>
  </g>
</svg>
