<svg xmlns="http://www.w3.org/2000/svg" width="121.471" height="33.958" viewBox="0 0 121.471 33.958">
  <g id="Grupo_11" data-name="Grupo 11" transform="translate(-1500.351 -1456.158)">
    <g id="Grupo_9" data-name="Grupo 9">
      <path id="Caminho_34" data-name="Caminho 34" d="M1504.626,1481.945" fill="#003b87" style="isolation: isolate"/>
      <path id="Caminho_35" data-name="Caminho 35" d="M1600.4,1471.007h-3.854v6.381c0,1.815.96,2.156,2.2,2.156a10.619,10.619,0,0,0,1.366-.127l.29,2.862a21.041,21.041,0,0,1-3.229.335c-2.662,0-5.018-.93-5.018-4.191v-7.416h-2.242v-2.82h2.242v-3.108l4.393-1.246v4.354h3.854Z" fill="#003b87" style="isolation: isolate"/>
      <path id="Caminho_36" data-name="Caminho 36" d="M1588.577,1482.322h-4.394v-9.08c0-1.334-.561-2.069-2.073-2.069a4.119,4.119,0,0,0-2.691,1.2v9.949h-4.395v-14.135h4.271v1.242a8.675,8.675,0,0,1,4.846-1.571,4.089,4.089,0,0,1,4.436,4.391Z" fill="#003b87" style="isolation: isolate"/>
      <path id="Caminho_37" data-name="Caminho 37" d="M1566.156,1456.158c-2.222,3.764-1.258,7.175-3.429,9.353-1.752,1.746-3.369,1.694-5.273,1.694a5.273,5.273,0,0,0-2.487.446,10.575,10.575,0,0,1-.446-3.135,6.208,6.208,0,0,1,1.691-4.68C1558.676,1457.369,1563.15,1456.585,1566.156,1456.158Z" fill="#238c54" style="isolation: isolate"/>
      <path id="Caminho_38" data-name="Caminho 38" d="M1542.4,1482.322H1538v-9.08c0-1.334-.561-2.069-2.072-2.069a4.136,4.136,0,0,0-2.695,1.2v9.949h-4.4v-14.135h4.271v1.242a8.694,8.694,0,0,1,4.848-1.571,4.09,4.09,0,0,1,4.437,4.391Z" fill="#003b87" style="isolation: isolate"/>
      <path id="Caminho_39" data-name="Caminho 39" d="M1527.935,1468.187l-7.044,17.119a6.738,6.738,0,0,1-6.216,4.562,12.456,12.456,0,0,1-3.237-.414l.622-2.818a8.652,8.652,0,0,0,1.91.246c1.767,0,2.705-1.5,3.563-3.564l.416-1-5.477-14.135h4.732l2.566,7a18.047,18.047,0,0,1,.623,2.322,25.43,25.43,0,0,1,.788-2.446l2.653-6.88Z" fill="#003b87" style="isolation: isolate"/>
      <path id="Caminho_40" data-name="Caminho 40" d="M1512.413,1477.8c0,3.08-2.842,4.769-6.217,4.769a14.927,14.927,0,0,1-5.845-1.119l1.205-2.863a11.891,11.891,0,0,0,4.019.955c1.019,0,2.445-.127,2.445-1.369,0-.58-.366-.879-1.038-1.076-.841-.249-2.13-.472-2.984-.707-1.789-.491-3.273-1.433-3.273-4.06,0-2.914,2.487-4.724,5.884-4.724a16.421,16.421,0,0,1,4.933.664l-1.118,2.859a10.126,10.126,0,0,0-3.237-.621c-1.2,0-2.03.459-2.03,1.2a1.116,1.116,0,0,0,.873,1.035c.688.223,1.777.42,2.694.621A4.171,4.171,0,0,1,1512.413,1477.8Z" fill="#003b87" style="isolation: isolate"/>
      <path id="Caminho_41" data-name="Caminho 41" d="M1613.884,1482.322h-4.143V1481.2a5.942,5.942,0,0,1-4.021,1.409c-2.632,0-4.435-1.274-4.435-3.942,0-4.684,4.675-5.411,8.332-5.43v-.372c0-1.163-.441-1.987-2.53-1.987a8.725,8.725,0,0,0-4.063,1.325l-1.076-2.612a13.9,13.9,0,0,1,6.378-1.738c3.382,0,5.558,1.609,5.558,4.432Zm-4.267-3.775v-2.611c-2.038-.032-3.94.169-3.94,2.115a1.6,1.6,0,0,0,1.78,1.573A2.822,2.822,0,0,0,1609.617,1478.547Z" fill="#003b87" style="isolation: isolate"/>
      <path id="Caminho_42" data-name="Caminho 42" d="M1573.095,1474.736c0,.468-.015.952-.038,1.452h-9.372c.042,2.054,1.067,3.27,4.063,3.27a7.427,7.427,0,0,0,3.6-1.076l1.161,2.614a13.02,13.02,0,0,1-6.34,1.618c-4.393,0-7.133-2.831-7.133-7.34a7.288,7.288,0,0,1,7.464-7.416C1571.331,1467.858,1573.095,1470.676,1573.095,1474.736Zm-4.517-1.369a2.119,2.119,0,0,0-2.24-2.526,2.678,2.678,0,0,0-2.608,2.526Z" fill="#003b87" style="isolation: isolate"/>
      <path id="Caminho_43" data-name="Caminho 43" d="M1559.052,1484.063c0,4.123-4.108,6.034-8.165,6.053-3.569.016-7.008-1.009-7.008-4.437,0-1.6,1.42-2.674,2.283-3.234a4.4,4.4,0,0,1-1.287-.911,3.128,3.128,0,0,1-.7-2.2c0-1.379,1.216-2.656,2.694-3.48-.819-.43-1.908-1.125-1.908-3.44,0-3.012,2.86-4.6,6.592-4.6,3.173,0,6.219.761,6.219,4.478,0,3.551-3.339,4.85-6.716,4.85a8.978,8.978,0,0,1-1.74-.207c-.362.191-1.077.665-1.077,1.2,0,1.086,1.48,1.244,2.153,1.244h3.48C1557.1,1479.377,1559.052,1480.947,1559.052,1484.063ZM1553.5,1472.5a1.969,1.969,0,0,0-2.113-2.152,2.162,2.162,0,0,0-2.158,2.152,2.005,2.005,0,0,0,2.075,2.156A2.035,2.035,0,0,0,1553.5,1472.5Zm1.16,12.145c0-1.151-.922-1.571-1.866-1.571h-3.854a2.662,2.662,0,0,0-1.494,2.028c0,1.242,1.672,2.075,3.646,2.075C1553.139,1487.174,1554.659,1486.233,1554.659,1484.642Z" fill="#003b87" style="isolation: isolate"/>
    </g>
    <g id="Grupo_10" data-name="Grupo 10">
      <path id="Caminho_44" data-name="Caminho 44" d="M1621.822,1478.994a3.3,3.3,0,1,1-3.284-3.206A3.221,3.221,0,0,1,1621.822,1478.994Zm-5.768,0a2.485,2.485,0,0,0,2.5,2.562,2.455,2.455,0,0,0,2.445-2.541,2.476,2.476,0,1,0-4.948-.021Zm1.976,1.683h-.744v-3.206a6.454,6.454,0,0,1,1.233-.1,2.017,2.017,0,0,1,1.114.234.9.9,0,0,1,.312.705.819.819,0,0,1-.664.742v.04a.947.947,0,0,1,.586.782,2.428,2.428,0,0,0,.236.8h-.8a2.78,2.78,0,0,1-.254-.783c-.058-.352-.254-.508-.664-.508h-.352Zm.019-1.82h.352c.411,0,.743-.135.743-.468,0-.293-.215-.488-.684-.488a1.835,1.835,0,0,0-.411.038Z" fill="#003b87" style="isolation: isolate"/>
    </g>
  </g>
</svg>
